<?xml version="1.0" encoding="utf-8"?>
<svg version="1.1" xmlns:xlink="http://www.w3.org/1999/xlink" width="14px" height="14px" viewBox="45 119  14 14" xmlns="http://www.w3.org/2000/svg">
  <path d="M 45.5 122  A 2.5 2.5 0 0 1 48 119.5 L 56 119.5  A 2.5 2.5 0 0 1 58.5 122 L 58.5 130  A 2.5 2.5 0 0 1 56 132.5 L 48 132.5  A 2.5 2.5 0 0 1 45.5 130 L 45.5 122  Z " fill-rule="nonzero" fill="#f0f0f0" stroke="none" />
  <path d="M 45.5 122  A 2.5 2.5 0 0 1 48 119.5 L 56 119.5  A 2.5 2.5 0 0 1 58.5 122 L 58.5 130  A 2.5 2.5 0 0 1 56 132.5 L 48 132.5  A 2.5 2.5 0 0 1 45.5 130 L 45.5 122  Z " stroke-width="1" stroke="#797979" fill="none" />
</svg>