<?xml version="1.0" encoding="utf-8"?>
<svg version="1.1" xmlns:xlink="http://www.w3.org/1999/xlink" width="16px" height="16px" viewBox="71 439  16 16" xmlns="http://www.w3.org/2000/svg">
  <path d="M 71.5 444  A 4.5 4.5 0 0 1 76 439.5 L 82 439.5  A 4.5 4.5 0 0 1 86.5 444 L 86.5 450  A 4.5 4.5 0 0 1 82 454.5 L 76 454.5  A 4.5 4.5 0 0 1 71.5 450 L 71.5 444  Z " fill-rule="nonzero" fill="#f0f0f0" stroke="none" />
  <path d="M 71.5 444  A 4.5 4.5 0 0 1 76 439.5 L 82 439.5  A 4.5 4.5 0 0 1 86.5 444 L 86.5 450  A 4.5 4.5 0 0 1 82 454.5 L 76 454.5  A 4.5 4.5 0 0 1 71.5 450 L 71.5 444  Z " stroke-width="1" stroke="#797979" fill="none" />
</svg>