<?xml version="1.0" encoding="utf-8"?>
<svg version="1.1" xmlns:xlink="http://www.w3.org/1999/xlink" width="12px" height="12px" viewBox="54 6652.5  12 12" xmlns="http://www.w3.org/2000/svg">
  <path d="M 60 6652.5  C 63.36 6652.5  66 6655.14  66 6658.5  C 66 6661.86  63.36 6664.5  60 6664.5  C 56.64 6664.5  54 6661.86  54 6658.5  C 54 6655.14  56.64 6652.5  60 6652.5  Z " fill-rule="nonzero" fill="#ffffff" stroke="none" />
  <path d="M 60 6653  C 63.08 6653  65.5 6655.42  65.5 6658.5  C 65.5 6661.58  63.08 6664  60 6664  C 56.92 6664  54.5 6661.58  54.5 6658.5  C 54.5 6655.42  56.92 6653  60 6653  Z " stroke-width="1" stroke="#797979" fill="none" />
  <path d="M 60 6661.5  C 58.32 6661.5  57 6660.18  57 6658.5  C 57 6656.82  58.32 6655.5  60 6655.5  C 61.68 6655.5  63 6656.82  63 6658.5  C 63 6660.18  61.68 6661.5  60 6661.5  " fill-rule="nonzero" fill="#797979" stroke="none" />
</svg>