<?xml version="1.0" encoding="utf-8"?>
<svg version="1.1" xmlns:xlink="http://www.w3.org/1999/xlink" width="12px" height="12px" viewBox="54 6627.5  12 12" xmlns="http://www.w3.org/2000/svg">
  <path d="M 60 6627.5  C 63.36 6627.5  66 6630.14  66 6633.5  C 66 6636.86  63.36 6639.5  60 6639.5  C 56.64 6639.5  54 6636.86  54 6633.5  C 54 6630.14  56.64 6627.5  60 6627.5  Z " fill-rule="nonzero" fill="#ffffff" stroke="none" />
  <path d="M 60 6628  C 63.08 6628  65.5 6630.42  65.5 6633.5  C 65.5 6636.58  63.08 6639  60 6639  C 56.92 6639  54.5 6636.58  54.5 6633.5  C 54.5 6630.42  56.92 6628  60 6628  Z " stroke-width="1" stroke="#797979" fill="none" />
  <path d="M 60 6636.5  C 58.32 6636.5  57 6635.18  57 6633.5  C 57 6631.82  58.32 6630.5  60 6630.5  C 61.68 6630.5  63 6631.82  63 6633.5  C 63 6635.18  61.68 6636.5  60 6636.5  " fill-rule="nonzero" fill="#797979" stroke="none" />
</svg>