<?xml version="1.0" encoding="utf-8"?>
<svg version="1.1" xmlns:xlink="http://www.w3.org/1999/xlink" width="12px" height="12px" viewBox="573 6650.5  12 12" xmlns="http://www.w3.org/2000/svg">
  <path d="M 579 6650.5  C 582.36 6650.5  585 6653.14  585 6656.5  C 585 6659.86  582.36 6662.5  579 6662.5  C 575.64 6662.5  573 6659.86  573 6656.5  C 573 6653.14  575.64 6650.5  579 6650.5  Z " fill-rule="nonzero" fill="#ffffff" stroke="none" />
  <path d="M 579 6651  C 582.08 6651  584.5 6653.42  584.5 6656.5  C 584.5 6659.58  582.08 6662  579 6662  C 575.92 6662  573.5 6659.58  573.5 6656.5  C 573.5 6653.42  575.92 6651  579 6651  Z " stroke-width="1" stroke="#797979" fill="none" />
  <path d="M 579 6659.5  C 577.32 6659.5  576 6658.18  576 6656.5  C 576 6654.82  577.32 6653.5  579 6653.5  C 580.68 6653.5  582 6654.82  582 6656.5  C 582 6658.18  580.68 6659.5  579 6659.5  " fill-rule="nonzero" fill="#797979" stroke="none" />
</svg>