<?xml version="1.0" encoding="utf-8"?>
<svg version="1.1" xmlns:xlink="http://www.w3.org/1999/xlink" width="12px" height="12px" viewBox="573 6675.5  12 12" xmlns="http://www.w3.org/2000/svg">
  <path d="M 579 6675.5  C 582.36 6675.5  585 6678.14  585 6681.5  C 585 6684.86  582.36 6687.5  579 6687.5  C 575.64 6687.5  573 6684.86  573 6681.5  C 573 6678.14  575.64 6675.5  579 6675.5  Z " fill-rule="nonzero" fill="#ffffff" stroke="none" />
  <path d="M 579 6676  C 582.08 6676  584.5 6678.42  584.5 6681.5  C 584.5 6684.58  582.08 6687  579 6687  C 575.92 6687  573.5 6684.58  573.5 6681.5  C 573.5 6678.42  575.92 6676  579 6676  Z " stroke-width="1" stroke="#797979" fill="none" />
  <path d="M 579 6684.5  C 577.32 6684.5  576 6683.18  576 6681.5  C 576 6679.82  577.32 6678.5  579 6678.5  C 580.68 6678.5  582 6679.82  582 6681.5  C 582 6683.18  580.68 6684.5  579 6684.5  " fill-rule="nonzero" fill="#797979" stroke="none" />
</svg>