<?xml version="1.0" encoding="utf-8"?>
<svg version="1.1" xmlns:xlink="http://www.w3.org/1999/xlink" width="12px" height="12px" viewBox="160 7587.5  12 12" xmlns="http://www.w3.org/2000/svg">
  <path d="M 166 7587.5  C 169.36 7587.5  172 7590.14  172 7593.5  C 172 7596.86  169.36 7599.5  166 7599.5  C 162.64 7599.5  160 7596.86  160 7593.5  C 160 7590.14  162.64 7587.5  166 7587.5  Z " fill-rule="nonzero" fill="#ffffff" stroke="none" />
  <path d="M 166 7588  C 169.08 7588  171.5 7590.42  171.5 7593.5  C 171.5 7596.58  169.08 7599  166 7599  C 162.92 7599  160.5 7596.58  160.5 7593.5  C 160.5 7590.42  162.92 7588  166 7588  Z " stroke-width="1" stroke="#797979" fill="none" />
  <path d="M 166 7596.5  C 164.32 7596.5  163 7595.18  163 7593.5  C 163 7591.82  164.32 7590.5  166 7590.5  C 167.68 7590.5  169 7591.82  169 7593.5  C 169 7595.18  167.68 7596.5  166 7596.5  " fill-rule="nonzero" fill="#797979" stroke="none" />
</svg>