<?xml version="1.0" encoding="utf-8"?>
<svg version="1.1" xmlns:xlink="http://www.w3.org/1999/xlink" width="12px" height="12px" viewBox="54 7606.5  12 12" xmlns="http://www.w3.org/2000/svg">
  <path d="M 60 7606.5  C 63.36 7606.5  66 7609.14  66 7612.5  C 66 7615.86  63.36 7618.5  60 7618.5  C 56.64 7618.5  54 7615.86  54 7612.5  C 54 7609.14  56.64 7606.5  60 7606.5  Z " fill-rule="nonzero" fill="#ffffff" stroke="none" />
  <path d="M 60 7607  C 63.08 7607  65.5 7609.42  65.5 7612.5  C 65.5 7615.58  63.08 7618  60 7618  C 56.92 7618  54.5 7615.58  54.5 7612.5  C 54.5 7609.42  56.92 7607  60 7607  Z " stroke-width="1" stroke="#797979" fill="none" />
  <path d="M 60 7615.5  C 58.32 7615.5  57 7614.18  57 7612.5  C 57 7610.82  58.32 7609.5  60 7609.5  C 61.68 7609.5  63 7610.82  63 7612.5  C 63 7614.18  61.68 7615.5  60 7615.5  " fill-rule="nonzero" fill="#797979" stroke="none" />
</svg>