<?xml version="1.0" encoding="utf-8"?>
<svg version="1.1" xmlns:xlink="http://www.w3.org/1999/xlink" width="13px" height="4px" xmlns="http://www.w3.org/2000/svg">
  <g transform="matrix(1 0 0 1 -325 -128 )">
    <path d="M 12.6590401785714 0.3671875  C 12.8863467261905 0.611979166666666  13 0.90625  13 1.25  L 13 2.75  C 13 3.09375  12.8863467261905 3.38802083333333  12.6590401785714 3.6328125  C 12.4317336309524 3.87760416666667  12.1584821428571 4  11.8392857142857 4  L 1.16071428571429 4  C 0.841517857142857 4  0.568266369047619 3.87760416666667  0.340959821428571 3.6328125  C 0.113653273809524 3.38802083333333  0 3.09375  0 2.75  L 0 1.25  C 0 0.90625  0.113653273809524 0.611979166666666  0.340959821428571 0.3671875  C 0.568266369047619 0.122395833333334  0.841517857142857 0  1.16071428571429 0  L 11.8392857142857 0  C 12.1584821428571 0  12.4317336309524 0.122395833333334  12.6590401785714 0.3671875  Z " fill-rule="nonzero" fill="#347cce" stroke="none" transform="matrix(1 0 0 1 325 128 )" />
  </g>
</svg>