<?xml version="1.0" encoding="utf-8"?>
<svg version="1.1" xmlns:xlink="http://www.w3.org/1999/xlink" width="12px" height="12px" viewBox="43 515.5  12 12" xmlns="http://www.w3.org/2000/svg">
  <path d="M 49 515.5  C 52.36 515.5  55 518.14  55 521.5  C 55 524.86  52.36 527.5  49 527.5  C 45.64 527.5  43 524.86  43 521.5  C 43 518.14  45.64 515.5  49 515.5  Z " fill-rule="nonzero" fill="#ffffff" stroke="none" />
  <path d="M 49 516  C 52.08 516  54.5 518.42  54.5 521.5  C 54.5 524.58  52.08 527  49 527  C 45.92 527  43.5 524.58  43.5 521.5  C 43.5 518.42  45.92 516  49 516  Z " stroke-width="1" stroke="#797979" fill="none" />
  <path d="M 49 524.5  C 47.32 524.5  46 523.18  46 521.5  C 46 519.82  47.32 518.5  49 518.5  C 50.68 518.5  52 519.82  52 521.5  C 52 523.18  50.68 524.5  49 524.5  " fill-rule="nonzero" fill="#797979" stroke="none" />
</svg>