<?xml version="1.0" encoding="utf-8"?>
<svg version="1.1" xmlns:xlink="http://www.w3.org/1999/xlink" width="12px" height="12px" viewBox="96 515.5  12 12" xmlns="http://www.w3.org/2000/svg">
  <path d="M 102 515.5  C 105.36 515.5  108 518.14  108 521.5  C 108 524.86  105.36 527.5  102 527.5  C 98.64 527.5  96 524.86  96 521.5  C 96 518.14  98.64 515.5  102 515.5  Z " fill-rule="nonzero" fill="#ffffff" stroke="none" />
  <path d="M 102 516  C 105.08 516  107.5 518.42  107.5 521.5  C 107.5 524.58  105.08 527  102 527  C 98.92 527  96.5 524.58  96.5 521.5  C 96.5 518.42  98.92 516  102 516  Z " stroke-width="1" stroke="#797979" fill="none" />
  <path d="M 102 524.5  C 100.32 524.5  99 523.18  99 521.5  C 99 519.82  100.32 518.5  102 518.5  C 103.68 518.5  105 519.82  105 521.5  C 105 523.18  103.68 524.5  102 524.5  " fill-rule="nonzero" fill="#797979" stroke="none" />
</svg>